<svg width="60" height="60" viewBox="0 0 60 60" fill="none" xmlns="http://www.w3.org/2000/svg">
  <defs>
    <linearGradient id="brandGradientIcon" x1="10" y1="10" x2="50" y2="50" gradientUnits="userSpaceOnUse">
      <stop offset="0%" stop-color="#00CED1" />
      <stop offset="100%" stop-color="#FFD700" />
    </linearGradient>
  </defs>
  <g id="travel-buddy-icon-only">
    <path d="M30 15C35 15 40 18 40 25C40 32 30 40 30 40C30 40 20 32 20 25C20 18 25 15 30 15Z" fill="url(#brandGradientIcon)" fill-opacity="0.2"/>
    <circle cx="30" cy="22" r="8" fill="#00CED1" />
    <path d="M22 35C22 35 25 32 30 32C35 32 38 35 38 35L30 50L22 35Z" fill="#00CED1" />
    <path d="M38 18L46 14L42 22L40 19L38 18Z" fill="#FFD700" />
    <path d="M28 24C28 24 29 26 30 26C31 26 32 24 32 24" stroke="white" stroke-width="1.5" stroke-linecap="round" />
  </g>
</svg>
